<mxfile host="app.diagrams.net" modified="2023-10-27T03:09:38.404Z" agent="Mozilla/5.0 (Macintosh; Intel Mac OS X 10_15_7) AppleWebKit/537.36 (KHTML, like Gecko) Chrome/117.0.0.0 Safari/537.36" etag="WGTeZrL1fdh-Xm5iD_Fe" version="22.0.8" type="github">
  <diagram id="AvR6cw5kz4uOTTxWP2PX" name="Página-1">
    <mxGraphModel dx="854" dy="429" grid="1" gridSize="10" guides="1" tooltips="1" connect="1" arrows="1" fold="1" page="1" pageScale="1" pageWidth="827" pageHeight="1169" math="0" shadow="0">
      <root>
        <mxCell id="0" />
        <mxCell id="1" parent="0" />
        <mxCell id="6_GjriQWZp8B4GLdr1Hl-1" value="&lt;font color=&quot;#ff8000&quot;&gt;AWS Cloud&lt;/font&gt;" style="sketch=0;outlineConnect=0;gradientColor=none;html=1;whiteSpace=wrap;fontSize=12;fontStyle=0;shape=mxgraph.aws4.group;grIcon=mxgraph.aws4.group_aws_cloud;strokeColor=#FF8000;fillColor=none;verticalAlign=top;align=left;spacingLeft=30;fontColor=#AAB7B8;dashed=0;" vertex="1" parent="1">
          <mxGeometry x="140" y="667" width="690" height="510" as="geometry" />
        </mxCell>
        <mxCell id="6_GjriQWZp8B4GLdr1Hl-2" value="&lt;font color=&quot;#ff8000&quot;&gt;AWS Cloud&lt;/font&gt;" style="sketch=0;outlineConnect=0;gradientColor=none;html=1;whiteSpace=wrap;fontSize=12;fontStyle=0;shape=mxgraph.aws4.group;grIcon=mxgraph.aws4.group_aws_cloud;strokeColor=#FF8000;fillColor=none;verticalAlign=top;align=left;spacingLeft=30;fontColor=#AAB7B8;dashed=0;" vertex="1" parent="1">
          <mxGeometry x="140" y="127" width="690" height="510" as="geometry" />
        </mxCell>
        <mxCell id="6_GjriQWZp8B4GLdr1Hl-3" value="&lt;font color=&quot;#bee014&quot;&gt;Campinho TCC&lt;/font&gt;" style="points=[[0,0],[0.25,0],[0.5,0],[0.75,0],[1,0],[1,0.25],[1,0.5],[1,0.75],[1,1],[0.75,1],[0.5,1],[0.25,1],[0,1],[0,0.75],[0,0.5],[0,0.25]];outlineConnect=0;gradientColor=none;html=1;whiteSpace=wrap;fontSize=12;fontStyle=0;container=1;pointerEvents=0;collapsible=0;recursiveResize=0;shape=mxgraph.aws4.group;grIcon=mxgraph.aws4.group_account;strokeColor=#BEE014;fillColor=none;verticalAlign=top;align=left;spacingLeft=30;fontColor=#CD2264;dashed=0;movable=1;" vertex="1" parent="1">
          <mxGeometry x="158" y="157" width="630" height="420" as="geometry" />
        </mxCell>
        <mxCell id="6_GjriQWZp8B4GLdr1Hl-4" value="&lt;b&gt;Route53&lt;br&gt;(opcional)&lt;br&gt;&lt;/b&gt;" style="sketch=0;points=[[0,0,0],[0.25,0,0],[0.5,0,0],[0.75,0,0],[1,0,0],[0,1,0],[0.25,1,0],[0.5,1,0],[0.75,1,0],[1,1,0],[0,0.25,0],[0,0.5,0],[0,0.75,0],[1,0.25,0],[1,0.5,0],[1,0.75,0]];outlineConnect=0;fontColor=#232F3E;fillColor=#8C4FFF;strokeColor=#ffffff;dashed=0;verticalLabelPosition=bottom;verticalAlign=top;align=center;html=1;fontSize=12;fontStyle=0;aspect=fixed;shape=mxgraph.aws4.resourceIcon;resIcon=mxgraph.aws4.route_53;movable=1;" vertex="1" parent="6_GjriQWZp8B4GLdr1Hl-3">
          <mxGeometry x="40" y="80" width="50" height="50" as="geometry" />
        </mxCell>
        <mxCell id="6_GjriQWZp8B4GLdr1Hl-5" value="&lt;b&gt;CloudFront&lt;/b&gt;" style="sketch=0;points=[[0,0,0],[0.25,0,0],[0.5,0,0],[0.75,0,0],[1,0,0],[0,1,0],[0.25,1,0],[0.5,1,0],[0.75,1,0],[1,1,0],[0,0.25,0],[0,0.5,0],[0,0.75,0],[1,0.25,0],[1,0.5,0],[1,0.75,0]];outlineConnect=0;fontColor=#232F3E;fillColor=#8C4FFF;strokeColor=#ffffff;dashed=0;verticalLabelPosition=bottom;verticalAlign=top;align=center;html=1;fontSize=12;fontStyle=0;aspect=fixed;shape=mxgraph.aws4.resourceIcon;resIcon=mxgraph.aws4.cloudfront;movable=1;" vertex="1" parent="6_GjriQWZp8B4GLdr1Hl-3">
          <mxGeometry x="132" y="180" width="50" height="50" as="geometry" />
        </mxCell>
        <mxCell id="6_GjriQWZp8B4GLdr1Hl-6" style="edgeStyle=orthogonalEdgeStyle;rounded=0;orthogonalLoop=1;jettySize=auto;html=1;entryX=0.5;entryY=0;entryDx=0;entryDy=0;entryPerimeter=0;movable=1;flowAnimation=1;" edge="1" parent="6_GjriQWZp8B4GLdr1Hl-3" source="6_GjriQWZp8B4GLdr1Hl-4" target="6_GjriQWZp8B4GLdr1Hl-5">
          <mxGeometry relative="1" as="geometry" />
        </mxCell>
        <mxCell id="6_GjriQWZp8B4GLdr1Hl-7" value="&lt;b&gt;Certificate Manager&lt;/b&gt;" style="sketch=0;points=[[0,0,0],[0.25,0,0],[0.5,0,0],[0.75,0,0],[1,0,0],[0,1,0],[0.25,1,0],[0.5,1,0],[0.75,1,0],[1,1,0],[0,0.25,0],[0,0.5,0],[0,0.75,0],[1,0.25,0],[1,0.5,0],[1,0.75,0]];outlineConnect=0;fontColor=#232F3E;fillColor=#DD344C;strokeColor=#ffffff;dashed=0;verticalLabelPosition=bottom;verticalAlign=top;align=center;html=1;fontSize=12;fontStyle=0;aspect=fixed;shape=mxgraph.aws4.resourceIcon;resIcon=mxgraph.aws4.certificate_manager_3;movable=1;" vertex="1" parent="6_GjriQWZp8B4GLdr1Hl-3">
          <mxGeometry x="40" y="320" width="50" height="50" as="geometry" />
        </mxCell>
        <mxCell id="6_GjriQWZp8B4GLdr1Hl-8" style="edgeStyle=orthogonalEdgeStyle;rounded=0;orthogonalLoop=1;jettySize=auto;html=1;entryX=0;entryY=0.5;entryDx=0;entryDy=0;entryPerimeter=0;movable=1;flowAnimation=1;" edge="1" parent="6_GjriQWZp8B4GLdr1Hl-3" source="6_GjriQWZp8B4GLdr1Hl-7" target="6_GjriQWZp8B4GLdr1Hl-5">
          <mxGeometry relative="1" as="geometry">
            <Array as="points">
              <mxPoint x="65" y="205" />
            </Array>
          </mxGeometry>
        </mxCell>
        <mxCell id="6_GjriQWZp8B4GLdr1Hl-9" value="sa-east-1" style="points=[[0,0],[0.25,0],[0.5,0],[0.75,0],[1,0],[1,0.25],[1,0.5],[1,0.75],[1,1],[0.75,1],[0.5,1],[0.25,1],[0,1],[0,0.75],[0,0.5],[0,0.25]];outlineConnect=0;gradientColor=none;html=1;whiteSpace=wrap;fontSize=12;fontStyle=0;container=1;pointerEvents=0;collapsible=0;recursiveResize=0;shape=mxgraph.aws4.group;grIcon=mxgraph.aws4.group_region;strokeColor=#147EBA;fillColor=none;verticalAlign=top;align=left;spacingLeft=30;fontColor=#147EBA;dashed=1;movable=1;" vertex="1" parent="1">
          <mxGeometry x="360" y="197" width="388" height="340" as="geometry" />
        </mxCell>
        <mxCell id="6_GjriQWZp8B4GLdr1Hl-10" value="&lt;b&gt;Bucket S3&lt;/b&gt;" style="sketch=0;points=[[0,0,0],[0.25,0,0],[0.5,0,0],[0.75,0,0],[1,0,0],[0,1,0],[0.25,1,0],[0.5,1,0],[0.75,1,0],[1,1,0],[0,0.25,0],[0,0.5,0],[0,0.75,0],[1,0.25,0],[1,0.5,0],[1,0.75,0]];outlineConnect=0;fontColor=#232F3E;fillColor=#7AA116;strokeColor=#ffffff;dashed=0;verticalLabelPosition=bottom;verticalAlign=top;align=center;html=1;fontSize=12;fontStyle=0;aspect=fixed;shape=mxgraph.aws4.resourceIcon;resIcon=mxgraph.aws4.s3;movable=1;" vertex="1" parent="6_GjriQWZp8B4GLdr1Hl-9">
          <mxGeometry x="72" y="140" width="50" height="50" as="geometry" />
        </mxCell>
        <mxCell id="6_GjriQWZp8B4GLdr1Hl-11" value="&lt;b&gt;CloudWatch&lt;br&gt;(opcional)&lt;br&gt;&lt;/b&gt;" style="sketch=0;points=[[0,0,0],[0.25,0,0],[0.5,0,0],[0.75,0,0],[1,0,0],[0,1,0],[0.25,1,0],[0.5,1,0],[0.75,1,0],[1,1,0],[0,0.25,0],[0,0.5,0],[0,0.75,0],[1,0.25,0],[1,0.5,0],[1,0.75,0]];points=[[0,0,0],[0.25,0,0],[0.5,0,0],[0.75,0,0],[1,0,0],[0,1,0],[0.25,1,0],[0.5,1,0],[0.75,1,0],[1,1,0],[0,0.25,0],[0,0.5,0],[0,0.75,0],[1,0.25,0],[1,0.5,0],[1,0.75,0]];outlineConnect=0;fontColor=#232F3E;fillColor=#E7157B;strokeColor=#ffffff;dashed=0;verticalLabelPosition=bottom;verticalAlign=top;align=center;html=1;fontSize=12;fontStyle=0;aspect=fixed;shape=mxgraph.aws4.resourceIcon;resIcon=mxgraph.aws4.cloudwatch_2;movable=1;" vertex="1" parent="6_GjriQWZp8B4GLdr1Hl-9">
          <mxGeometry x="202" y="140" width="50" height="50" as="geometry" />
        </mxCell>
        <mxCell id="6_GjriQWZp8B4GLdr1Hl-12" style="edgeStyle=orthogonalEdgeStyle;rounded=0;orthogonalLoop=1;jettySize=auto;html=1;entryX=0;entryY=0.5;entryDx=0;entryDy=0;entryPerimeter=0;movable=1;flowAnimation=1;" edge="1" parent="6_GjriQWZp8B4GLdr1Hl-9" source="6_GjriQWZp8B4GLdr1Hl-10" target="6_GjriQWZp8B4GLdr1Hl-11">
          <mxGeometry relative="1" as="geometry" />
        </mxCell>
        <mxCell id="6_GjriQWZp8B4GLdr1Hl-13" value="" style="verticalLabelPosition=bottom;html=1;verticalAlign=top;align=center;strokeColor=none;fillColor=#000000;shape=mxgraph.azure.script_file;pointerEvents=1;movable=1;" vertex="1" parent="6_GjriQWZp8B4GLdr1Hl-9">
          <mxGeometry x="76" y="40" width="42" height="40" as="geometry" />
        </mxCell>
        <mxCell id="6_GjriQWZp8B4GLdr1Hl-14" style="edgeStyle=orthogonalEdgeStyle;rounded=0;orthogonalLoop=1;jettySize=auto;html=1;entryX=0.5;entryY=0;entryDx=0;entryDy=0;entryPerimeter=0;movable=1;flowAnimation=1;" edge="1" parent="6_GjriQWZp8B4GLdr1Hl-9" source="6_GjriQWZp8B4GLdr1Hl-13" target="6_GjriQWZp8B4GLdr1Hl-10">
          <mxGeometry relative="1" as="geometry" />
        </mxCell>
        <mxCell id="6_GjriQWZp8B4GLdr1Hl-15" value="&lt;b&gt;Usuários&lt;/b&gt;" style="sketch=0;outlineConnect=0;dashed=0;verticalLabelPosition=bottom;verticalAlign=top;align=center;html=1;fontSize=12;fontStyle=0;aspect=fixed;pointerEvents=1;shape=mxgraph.aws4.users;fillStyle=solid;fillColor=#000000;fontColor=#333333;strokeColor=#666666;movable=1;" vertex="1" parent="1">
          <mxGeometry x="40" y="237" width="50" height="50" as="geometry" />
        </mxCell>
        <mxCell id="6_GjriQWZp8B4GLdr1Hl-16" style="edgeStyle=orthogonalEdgeStyle;rounded=0;orthogonalLoop=1;jettySize=auto;html=1;entryX=0;entryY=0.5;entryDx=0;entryDy=0;entryPerimeter=0;movable=1;flowAnimation=1;" edge="1" parent="1" source="6_GjriQWZp8B4GLdr1Hl-15" target="6_GjriQWZp8B4GLdr1Hl-4">
          <mxGeometry relative="1" as="geometry" />
        </mxCell>
        <mxCell id="6_GjriQWZp8B4GLdr1Hl-17" style="edgeStyle=orthogonalEdgeStyle;rounded=0;orthogonalLoop=1;jettySize=auto;html=1;entryX=0;entryY=0.5;entryDx=0;entryDy=0;entryPerimeter=0;movable=1;flowAnimation=1;" edge="1" parent="1" source="6_GjriQWZp8B4GLdr1Hl-5" target="6_GjriQWZp8B4GLdr1Hl-10">
          <mxGeometry relative="1" as="geometry" />
        </mxCell>
        <mxCell id="6_GjriQWZp8B4GLdr1Hl-18" value="&lt;font color=&quot;#ff8000&quot;&gt;AWS Cloud&lt;/font&gt;" style="sketch=0;outlineConnect=0;gradientColor=none;html=1;whiteSpace=wrap;fontSize=12;fontStyle=0;shape=mxgraph.aws4.group;grIcon=mxgraph.aws4.group_aws_cloud;strokeColor=#FF8000;fillColor=none;verticalAlign=top;align=left;spacingLeft=30;fontColor=#AAB7B8;dashed=0;" vertex="1" parent="1">
          <mxGeometry x="970" y="127" width="690" height="510" as="geometry" />
        </mxCell>
        <mxCell id="6_GjriQWZp8B4GLdr1Hl-19" value="&lt;font color=&quot;#bee014&quot;&gt;Campinho TCC&lt;/font&gt;" style="points=[[0,0],[0.25,0],[0.5,0],[0.75,0],[1,0],[1,0.25],[1,0.5],[1,0.75],[1,1],[0.75,1],[0.5,1],[0.25,1],[0,1],[0,0.75],[0,0.5],[0,0.25]];outlineConnect=0;gradientColor=none;html=1;whiteSpace=wrap;fontSize=12;fontStyle=0;container=1;pointerEvents=0;collapsible=0;recursiveResize=0;shape=mxgraph.aws4.group;grIcon=mxgraph.aws4.group_account;strokeColor=#BEE014;fillColor=none;verticalAlign=top;align=left;spacingLeft=30;fontColor=#CD2264;dashed=0;movable=1;" vertex="1" parent="1">
          <mxGeometry x="998" y="157" width="630" height="420" as="geometry" />
        </mxCell>
        <mxCell id="6_GjriQWZp8B4GLdr1Hl-20" value="sa-east-1" style="points=[[0,0],[0.25,0],[0.5,0],[0.75,0],[1,0],[1,0.25],[1,0.5],[1,0.75],[1,1],[0.75,1],[0.5,1],[0.25,1],[0,1],[0,0.75],[0,0.5],[0,0.25]];outlineConnect=0;gradientColor=none;html=1;whiteSpace=wrap;fontSize=12;fontStyle=0;container=1;pointerEvents=0;collapsible=0;recursiveResize=0;shape=mxgraph.aws4.group;grIcon=mxgraph.aws4.group_region;strokeColor=#147EBA;fillColor=none;verticalAlign=top;align=left;spacingLeft=30;fontColor=#147EBA;dashed=1;movable=1;" vertex="1" parent="1">
          <mxGeometry x="1200" y="197" width="398" height="340" as="geometry" />
        </mxCell>
        <mxCell id="6_GjriQWZp8B4GLdr1Hl-21" style="edgeStyle=orthogonalEdgeStyle;rounded=0;orthogonalLoop=1;jettySize=auto;html=1;flowAnimation=1;" edge="1" parent="6_GjriQWZp8B4GLdr1Hl-20" source="6_GjriQWZp8B4GLdr1Hl-22" target="6_GjriQWZp8B4GLdr1Hl-23">
          <mxGeometry relative="1" as="geometry" />
        </mxCell>
        <mxCell id="6_GjriQWZp8B4GLdr1Hl-22" value="&lt;b&gt;Bucket S3&lt;/b&gt;" style="sketch=0;points=[[0,0,0],[0.25,0,0],[0.5,0,0],[0.75,0,0],[1,0,0],[0,1,0],[0.25,1,0],[0.5,1,0],[0.75,1,0],[1,1,0],[0,0.25,0],[0,0.5,0],[0,0.75,0],[1,0.25,0],[1,0.5,0],[1,0.75,0]];outlineConnect=0;fontColor=#232F3E;fillColor=#7AA116;strokeColor=#ffffff;dashed=0;verticalLabelPosition=bottom;verticalAlign=top;align=center;html=1;fontSize=12;fontStyle=0;aspect=fixed;shape=mxgraph.aws4.resourceIcon;resIcon=mxgraph.aws4.s3;movable=1;" vertex="1" parent="6_GjriQWZp8B4GLdr1Hl-20">
          <mxGeometry x="36" y="140" width="50" height="50" as="geometry" />
        </mxCell>
        <mxCell id="6_GjriQWZp8B4GLdr1Hl-23" value="&lt;b&gt;&amp;nbsp; &amp;nbsp; &amp;nbsp; &amp;nbsp; &amp;nbsp; &amp;nbsp; &amp;nbsp; &amp;nbsp; &amp;nbsp; &amp;nbsp; Lambda&lt;/b&gt;" style="sketch=0;points=[[0,0,0],[0.25,0,0],[0.5,0,0],[0.75,0,0],[1,0,0],[0,1,0],[0.25,1,0],[0.5,1,0],[0.75,1,0],[1,1,0],[0,0.25,0],[0,0.5,0],[0,0.75,0],[1,0.25,0],[1,0.5,0],[1,0.75,0]];outlineConnect=0;fontColor=#232F3E;fillColor=#ED7100;strokeColor=#ffffff;dashed=0;verticalLabelPosition=bottom;verticalAlign=top;align=center;html=1;fontSize=12;fontStyle=0;aspect=fixed;shape=mxgraph.aws4.resourceIcon;resIcon=mxgraph.aws4.lambda;" vertex="1" parent="6_GjriQWZp8B4GLdr1Hl-20">
          <mxGeometry x="169" y="140" width="50" height="50" as="geometry" />
        </mxCell>
        <mxCell id="6_GjriQWZp8B4GLdr1Hl-24" value="&lt;b&gt;DynamoDB&lt;/b&gt;" style="sketch=0;points=[[0,0,0],[0.25,0,0],[0.5,0,0],[0.75,0,0],[1,0,0],[0,1,0],[0.25,1,0],[0.5,1,0],[0.75,1,0],[1,1,0],[0,0.25,0],[0,0.5,0],[0,0.75,0],[1,0.25,0],[1,0.5,0],[1,0.75,0]];outlineConnect=0;fontColor=#232F3E;fillColor=#C925D1;strokeColor=#ffffff;dashed=0;verticalLabelPosition=bottom;verticalAlign=top;align=center;html=1;fontSize=12;fontStyle=0;aspect=fixed;shape=mxgraph.aws4.resourceIcon;resIcon=mxgraph.aws4.dynamodb;" vertex="1" parent="6_GjriQWZp8B4GLdr1Hl-20">
          <mxGeometry x="310" y="140" width="50" height="50" as="geometry" />
        </mxCell>
        <mxCell id="6_GjriQWZp8B4GLdr1Hl-25" style="edgeStyle=orthogonalEdgeStyle;rounded=0;orthogonalLoop=1;jettySize=auto;html=1;entryX=0.5;entryY=1;entryDx=0;entryDy=0;entryPerimeter=0;flowAnimation=1;" edge="1" parent="6_GjriQWZp8B4GLdr1Hl-20" source="6_GjriQWZp8B4GLdr1Hl-23">
          <mxGeometry relative="1" as="geometry">
            <mxPoint x="194" y="90" as="targetPoint" />
          </mxGeometry>
        </mxCell>
        <mxCell id="6_GjriQWZp8B4GLdr1Hl-26" style="edgeStyle=orthogonalEdgeStyle;rounded=0;orthogonalLoop=1;jettySize=auto;html=1;entryX=0;entryY=0.5;entryDx=0;entryDy=0;entryPerimeter=0;flowAnimation=1;" edge="1" parent="6_GjriQWZp8B4GLdr1Hl-20" source="6_GjriQWZp8B4GLdr1Hl-23" target="6_GjriQWZp8B4GLdr1Hl-24">
          <mxGeometry relative="1" as="geometry" />
        </mxCell>
        <mxCell id="6_GjriQWZp8B4GLdr1Hl-27" value="&lt;b&gt;Rekognition&lt;/b&gt;" style="text;html=1;align=center;verticalAlign=middle;resizable=0;points=[];autosize=1;strokeColor=none;fillColor=none;" vertex="1" parent="6_GjriQWZp8B4GLdr1Hl-20">
          <mxGeometry x="154" y="10" width="90" height="30" as="geometry" />
        </mxCell>
        <mxCell id="6_GjriQWZp8B4GLdr1Hl-28" value="&lt;b&gt;IAM Role&lt;/b&gt;" style="sketch=0;outlineConnect=0;fontColor=#232F3E;gradientColor=none;fillColor=#DD344C;strokeColor=none;dashed=0;verticalLabelPosition=bottom;verticalAlign=top;align=center;html=1;fontSize=12;fontStyle=0;aspect=fixed;pointerEvents=1;shape=mxgraph.aws4.role;" vertex="1" parent="6_GjriQWZp8B4GLdr1Hl-20">
          <mxGeometry x="167.41" y="260" width="53.18" height="30" as="geometry" />
        </mxCell>
        <mxCell id="6_GjriQWZp8B4GLdr1Hl-29" style="edgeStyle=orthogonalEdgeStyle;rounded=0;orthogonalLoop=1;jettySize=auto;html=1;flowAnimation=1;" edge="1" parent="6_GjriQWZp8B4GLdr1Hl-20" source="6_GjriQWZp8B4GLdr1Hl-28" target="6_GjriQWZp8B4GLdr1Hl-23">
          <mxGeometry relative="1" as="geometry" />
        </mxCell>
        <mxCell id="6_GjriQWZp8B4GLdr1Hl-30" value="&lt;b&gt;Usuários&lt;/b&gt;" style="sketch=0;outlineConnect=0;dashed=0;verticalLabelPosition=bottom;verticalAlign=top;align=center;html=1;fontSize=12;fontStyle=0;aspect=fixed;pointerEvents=1;shape=mxgraph.aws4.users;fillStyle=solid;fillColor=#000000;fontColor=#333333;strokeColor=#666666;movable=1;" vertex="1" parent="1">
          <mxGeometry x="890" y="337" width="50" height="50" as="geometry" />
        </mxCell>
        <mxCell id="6_GjriQWZp8B4GLdr1Hl-31" style="edgeStyle=orthogonalEdgeStyle;rounded=0;orthogonalLoop=1;jettySize=auto;html=1;entryX=0;entryY=0.5;entryDx=0;entryDy=0;entryPerimeter=0;flowAnimation=1;" edge="1" parent="1" source="6_GjriQWZp8B4GLdr1Hl-30" target="6_GjriQWZp8B4GLdr1Hl-22">
          <mxGeometry relative="1" as="geometry" />
        </mxCell>
        <mxCell id="6_GjriQWZp8B4GLdr1Hl-32" value="&lt;font color=&quot;#bee014&quot;&gt;Campinho TCC&lt;/font&gt;" style="points=[[0,0],[0.25,0],[0.5,0],[0.75,0],[1,0],[1,0.25],[1,0.5],[1,0.75],[1,1],[0.75,1],[0.5,1],[0.25,1],[0,1],[0,0.75],[0,0.5],[0,0.25]];outlineConnect=0;gradientColor=none;html=1;whiteSpace=wrap;fontSize=12;fontStyle=0;container=1;pointerEvents=0;collapsible=0;recursiveResize=0;shape=mxgraph.aws4.group;grIcon=mxgraph.aws4.group_account;strokeColor=#BEE014;fillColor=none;verticalAlign=top;align=left;spacingLeft=30;fontColor=#CD2264;dashed=0;movable=1;" vertex="1" parent="1">
          <mxGeometry x="158" y="707" width="630" height="420" as="geometry" />
        </mxCell>
        <mxCell id="6_GjriQWZp8B4GLdr1Hl-33" value="&lt;b&gt;Route 53&lt;br&gt;(Opcional)&lt;br&gt;&lt;/b&gt;" style="sketch=0;points=[[0,0,0],[0.25,0,0],[0.5,0,0],[0.75,0,0],[1,0,0],[0,1,0],[0.25,1,0],[0.5,1,0],[0.75,1,0],[1,1,0],[0,0.25,0],[0,0.5,0],[0,0.75,0],[1,0.25,0],[1,0.5,0],[1,0.75,0]];outlineConnect=0;fontColor=#232F3E;fillColor=#8C4FFF;strokeColor=#ffffff;dashed=0;verticalLabelPosition=bottom;verticalAlign=top;align=center;html=1;fontSize=12;fontStyle=0;aspect=fixed;shape=mxgraph.aws4.resourceIcon;resIcon=mxgraph.aws4.route_53;" vertex="1" parent="6_GjriQWZp8B4GLdr1Hl-32">
          <mxGeometry x="40" y="80" width="50" height="50" as="geometry" />
        </mxCell>
        <mxCell id="6_GjriQWZp8B4GLdr1Hl-34" value="sa-east-1" style="points=[[0,0],[0.25,0],[0.5,0],[0.75,0],[1,0],[1,0.25],[1,0.5],[1,0.75],[1,1],[0.75,1],[0.5,1],[0.25,1],[0,1],[0,0.75],[0,0.5],[0,0.25]];outlineConnect=0;gradientColor=none;html=1;whiteSpace=wrap;fontSize=12;fontStyle=0;container=1;pointerEvents=0;collapsible=0;recursiveResize=0;shape=mxgraph.aws4.group;grIcon=mxgraph.aws4.group_region;strokeColor=#147EBA;fillColor=none;verticalAlign=top;align=left;spacingLeft=30;fontColor=#147EBA;dashed=1;movable=1;" vertex="1" parent="1">
          <mxGeometry x="320" y="747" width="428" height="340" as="geometry" />
        </mxCell>
        <mxCell id="6_GjriQWZp8B4GLdr1Hl-35" style="edgeStyle=orthogonalEdgeStyle;rounded=0;orthogonalLoop=1;jettySize=auto;html=1;flowAnimation=1;" edge="1" parent="6_GjriQWZp8B4GLdr1Hl-34" source="6_GjriQWZp8B4GLdr1Hl-36" target="6_GjriQWZp8B4GLdr1Hl-40">
          <mxGeometry relative="1" as="geometry" />
        </mxCell>
        <mxCell id="6_GjriQWZp8B4GLdr1Hl-36" value="&lt;b&gt;Bucket S3&lt;/b&gt;" style="sketch=0;points=[[0,0,0],[0.25,0,0],[0.5,0,0],[0.75,0,0],[1,0,0],[0,1,0],[0.25,1,0],[0.5,1,0],[0.75,1,0],[1,1,0],[0,0.25,0],[0,0.5,0],[0,0.75,0],[1,0.25,0],[1,0.5,0],[1,0.75,0]];outlineConnect=0;fontColor=#232F3E;fillColor=#7AA116;strokeColor=#ffffff;dashed=0;verticalLabelPosition=bottom;verticalAlign=top;align=center;html=1;fontSize=12;fontStyle=0;aspect=fixed;shape=mxgraph.aws4.resourceIcon;resIcon=mxgraph.aws4.s3;movable=1;" vertex="1" parent="6_GjriQWZp8B4GLdr1Hl-34">
          <mxGeometry x="22" y="150" width="50" height="50" as="geometry" />
        </mxCell>
        <mxCell id="6_GjriQWZp8B4GLdr1Hl-37" value="" style="verticalLabelPosition=bottom;html=1;verticalAlign=top;align=center;strokeColor=none;fillColor=#000000;shape=mxgraph.azure.script_file;pointerEvents=1;movable=1;" vertex="1" parent="6_GjriQWZp8B4GLdr1Hl-34">
          <mxGeometry x="26" y="40" width="42" height="40" as="geometry" />
        </mxCell>
        <mxCell id="6_GjriQWZp8B4GLdr1Hl-38" style="edgeStyle=orthogonalEdgeStyle;rounded=0;orthogonalLoop=1;jettySize=auto;html=1;entryX=0.5;entryY=0;entryDx=0;entryDy=0;entryPerimeter=0;movable=1;flowAnimation=1;" edge="1" parent="6_GjriQWZp8B4GLdr1Hl-34" source="6_GjriQWZp8B4GLdr1Hl-37" target="6_GjriQWZp8B4GLdr1Hl-36">
          <mxGeometry relative="1" as="geometry" />
        </mxCell>
        <mxCell id="6_GjriQWZp8B4GLdr1Hl-39" value="&lt;b&gt;DynamoDB&lt;/b&gt;" style="sketch=0;points=[[0,0,0],[0.25,0,0],[0.5,0,0],[0.75,0,0],[1,0,0],[0,1,0],[0.25,1,0],[0.5,1,0],[0.75,1,0],[1,1,0],[0,0.25,0],[0,0.5,0],[0,0.75,0],[1,0.25,0],[1,0.5,0],[1,0.75,0]];outlineConnect=0;fontColor=#232F3E;fillColor=#C925D1;strokeColor=#ffffff;dashed=0;verticalLabelPosition=bottom;verticalAlign=top;align=center;html=1;fontSize=12;fontStyle=0;aspect=fixed;shape=mxgraph.aws4.resourceIcon;resIcon=mxgraph.aws4.dynamodb;" vertex="1" parent="6_GjriQWZp8B4GLdr1Hl-34">
          <mxGeometry x="360" y="150" width="50" height="50" as="geometry" />
        </mxCell>
        <mxCell id="6_GjriQWZp8B4GLdr1Hl-40" value="&lt;b&gt;API Gateway&lt;/b&gt;" style="sketch=0;points=[[0,0,0],[0.25,0,0],[0.5,0,0],[0.75,0,0],[1,0,0],[0,1,0],[0.25,1,0],[0.5,1,0],[0.75,1,0],[1,1,0],[0,0.25,0],[0,0.5,0],[0,0.75,0],[1,0.25,0],[1,0.5,0],[1,0.75,0]];outlineConnect=0;fontColor=#232F3E;fillColor=#8C4FFF;strokeColor=#ffffff;dashed=0;verticalLabelPosition=bottom;verticalAlign=top;align=center;html=1;fontSize=12;fontStyle=0;aspect=fixed;shape=mxgraph.aws4.resourceIcon;resIcon=mxgraph.aws4.api_gateway;" vertex="1" parent="6_GjriQWZp8B4GLdr1Hl-34">
          <mxGeometry x="120" y="150" width="50" height="50" as="geometry" />
        </mxCell>
        <mxCell id="6_GjriQWZp8B4GLdr1Hl-41" value="&lt;b&gt;&amp;nbsp; &amp;nbsp; &amp;nbsp; &amp;nbsp; &amp;nbsp; &amp;nbsp; &amp;nbsp; &amp;nbsp; &amp;nbsp;Lambda&lt;/b&gt;" style="sketch=0;points=[[0,0,0],[0.25,0,0],[0.5,0,0],[0.75,0,0],[1,0,0],[0,1,0],[0.25,1,0],[0.5,1,0],[0.75,1,0],[1,1,0],[0,0.25,0],[0,0.5,0],[0,0.75,0],[1,0.25,0],[1,0.5,0],[1,0.75,0]];outlineConnect=0;fontColor=#232F3E;fillColor=#ED7100;strokeColor=#ffffff;dashed=0;verticalLabelPosition=bottom;verticalAlign=top;align=center;html=1;fontSize=12;fontStyle=0;aspect=fixed;shape=mxgraph.aws4.resourceIcon;resIcon=mxgraph.aws4.lambda;" vertex="1" parent="6_GjriQWZp8B4GLdr1Hl-34">
          <mxGeometry x="230" y="150" width="50" height="50" as="geometry" />
        </mxCell>
        <mxCell id="6_GjriQWZp8B4GLdr1Hl-42" value="" style="sketch=0;points=[[0,0,0],[0.25,0,0],[0.5,0,0],[0.75,0,0],[1,0,0],[0,1,0],[0.25,1,0],[0.5,1,0],[0.75,1,0],[1,1,0],[0,0.25,0],[0,0.5,0],[0,0.75,0],[1,0.25,0],[1,0.5,0],[1,0.75,0]];outlineConnect=0;fontColor=#232F3E;fillColor=#E7157B;strokeColor=#ffffff;dashed=0;verticalLabelPosition=bottom;verticalAlign=top;align=center;html=1;fontSize=12;fontStyle=0;aspect=fixed;shape=mxgraph.aws4.resourceIcon;resIcon=mxgraph.aws4.sns;" vertex="1" parent="6_GjriQWZp8B4GLdr1Hl-34">
          <mxGeometry x="230" y="40" width="50" height="50" as="geometry" />
        </mxCell>
        <mxCell id="6_GjriQWZp8B4GLdr1Hl-43" style="edgeStyle=orthogonalEdgeStyle;rounded=0;orthogonalLoop=1;jettySize=auto;html=1;entryX=0;entryY=0.5;entryDx=0;entryDy=0;entryPerimeter=0;flowAnimation=1;" edge="1" parent="6_GjriQWZp8B4GLdr1Hl-34" source="6_GjriQWZp8B4GLdr1Hl-40" target="6_GjriQWZp8B4GLdr1Hl-41">
          <mxGeometry relative="1" as="geometry" />
        </mxCell>
        <mxCell id="6_GjriQWZp8B4GLdr1Hl-44" style="edgeStyle=orthogonalEdgeStyle;rounded=0;orthogonalLoop=1;jettySize=auto;html=1;entryX=0;entryY=0.5;entryDx=0;entryDy=0;entryPerimeter=0;flowAnimation=1;" edge="1" parent="6_GjriQWZp8B4GLdr1Hl-34" source="6_GjriQWZp8B4GLdr1Hl-41" target="6_GjriQWZp8B4GLdr1Hl-39">
          <mxGeometry relative="1" as="geometry" />
        </mxCell>
        <mxCell id="6_GjriQWZp8B4GLdr1Hl-45" value="&lt;b&gt;SNS&lt;/b&gt;" style="text;html=1;align=center;verticalAlign=middle;resizable=0;points=[];autosize=1;strokeColor=none;fillColor=none;" vertex="1" parent="6_GjriQWZp8B4GLdr1Hl-34">
          <mxGeometry x="230" y="10" width="50" height="30" as="geometry" />
        </mxCell>
        <mxCell id="6_GjriQWZp8B4GLdr1Hl-46" style="edgeStyle=orthogonalEdgeStyle;rounded=0;orthogonalLoop=1;jettySize=auto;html=1;entryX=0.5;entryY=1;entryDx=0;entryDy=0;entryPerimeter=0;flowAnimation=1;" edge="1" parent="6_GjriQWZp8B4GLdr1Hl-34" source="6_GjriQWZp8B4GLdr1Hl-41" target="6_GjriQWZp8B4GLdr1Hl-42">
          <mxGeometry relative="1" as="geometry" />
        </mxCell>
        <mxCell id="6_GjriQWZp8B4GLdr1Hl-47" value="&lt;b&gt;IAM Role&lt;/b&gt;" style="sketch=0;outlineConnect=0;fontColor=#232F3E;gradientColor=none;fillColor=#DD344C;strokeColor=none;dashed=0;verticalLabelPosition=bottom;verticalAlign=top;align=center;html=1;fontSize=12;fontStyle=0;aspect=fixed;pointerEvents=1;shape=mxgraph.aws4.role;" vertex="1" parent="6_GjriQWZp8B4GLdr1Hl-34">
          <mxGeometry x="228.41000000000005" y="270" width="53.18" height="30" as="geometry" />
        </mxCell>
        <mxCell id="6_GjriQWZp8B4GLdr1Hl-48" style="edgeStyle=orthogonalEdgeStyle;rounded=0;orthogonalLoop=1;jettySize=auto;html=1;entryX=0.5;entryY=1;entryDx=0;entryDy=0;entryPerimeter=0;flowAnimation=1;" edge="1" parent="6_GjriQWZp8B4GLdr1Hl-34" source="6_GjriQWZp8B4GLdr1Hl-47" target="6_GjriQWZp8B4GLdr1Hl-41">
          <mxGeometry relative="1" as="geometry" />
        </mxCell>
        <mxCell id="6_GjriQWZp8B4GLdr1Hl-49" value="&lt;b&gt;Usuários&lt;/b&gt;" style="sketch=0;outlineConnect=0;dashed=0;verticalLabelPosition=bottom;verticalAlign=top;align=center;html=1;fontSize=12;fontStyle=0;aspect=fixed;pointerEvents=1;shape=mxgraph.aws4.users;fillStyle=solid;fillColor=#000000;fontColor=#333333;strokeColor=#666666;movable=1;" vertex="1" parent="1">
          <mxGeometry x="40" y="787" width="50" height="50" as="geometry" />
        </mxCell>
        <mxCell id="6_GjriQWZp8B4GLdr1Hl-50" style="edgeStyle=orthogonalEdgeStyle;rounded=0;orthogonalLoop=1;jettySize=auto;html=1;entryX=0;entryY=0.5;entryDx=0;entryDy=0;entryPerimeter=0;movable=1;flowAnimation=1;" edge="1" parent="1" source="6_GjriQWZp8B4GLdr1Hl-49">
          <mxGeometry relative="1" as="geometry">
            <mxPoint x="198.0000000000001" y="812" as="targetPoint" />
          </mxGeometry>
        </mxCell>
        <mxCell id="6_GjriQWZp8B4GLdr1Hl-51" style="edgeStyle=orthogonalEdgeStyle;rounded=0;orthogonalLoop=1;jettySize=auto;html=1;entryX=0;entryY=0.5;entryDx=0;entryDy=0;entryPerimeter=0;flowAnimation=1;" edge="1" parent="1" source="6_GjriQWZp8B4GLdr1Hl-33" target="6_GjriQWZp8B4GLdr1Hl-36">
          <mxGeometry relative="1" as="geometry" />
        </mxCell>
        <mxCell id="6_GjriQWZp8B4GLdr1Hl-52" value="&lt;b&gt;CloudFront&lt;br&gt;(Opcional)&lt;br&gt;&lt;/b&gt;" style="sketch=0;points=[[0,0,0],[0.25,0,0],[0.5,0,0],[0.75,0,0],[1,0,0],[0,1,0],[0.25,1,0],[0.5,1,0],[0.75,1,0],[1,1,0],[0,0.25,0],[0,0.5,0],[0,0.75,0],[1,0.25,0],[1,0.5,0],[1,0.75,0]];outlineConnect=0;fontColor=#232F3E;fillColor=#8C4FFF;strokeColor=#ffffff;dashed=0;verticalLabelPosition=bottom;verticalAlign=top;align=center;html=1;fontSize=12;fontStyle=0;aspect=fixed;shape=mxgraph.aws4.resourceIcon;resIcon=mxgraph.aws4.cloudfront;movable=1;" vertex="1" parent="1">
          <mxGeometry x="200" y="907" width="50" height="50" as="geometry" />
        </mxCell>
        <mxCell id="6_GjriQWZp8B4GLdr1Hl-53" value="&lt;b&gt;Certificate Manager&lt;br&gt;(Opcional)&lt;br&gt;&lt;/b&gt;" style="sketch=0;points=[[0,0,0],[0.25,0,0],[0.5,0,0],[0.75,0,0],[1,0,0],[0,1,0],[0.25,1,0],[0.5,1,0],[0.75,1,0],[1,1,0],[0,0.25,0],[0,0.5,0],[0,0.75,0],[1,0.25,0],[1,0.5,0],[1,0.75,0]];outlineConnect=0;fontColor=#232F3E;fillColor=#DD344C;strokeColor=#ffffff;dashed=0;verticalLabelPosition=bottom;verticalAlign=top;align=center;html=1;fontSize=12;fontStyle=0;aspect=fixed;shape=mxgraph.aws4.resourceIcon;resIcon=mxgraph.aws4.certificate_manager_3;movable=1;" vertex="1" parent="1">
          <mxGeometry x="200" y="1017" width="50" height="50" as="geometry" />
        </mxCell>
        <mxCell id="6_GjriQWZp8B4GLdr1Hl-54" value="&lt;div style=&quot;text-align: justify;&quot;&gt;&lt;span style=&quot;font-size: 14px; background-color: initial;&quot;&gt;&quot;Desenvolvimento de um sistema de agendamento de compromissos online (html, css) onde os usuários podem marcar e visualizar seus compromissos.&lt;/span&gt;&lt;/div&gt;&lt;font style=&quot;font-size: 14px;&quot;&gt;&lt;div style=&quot;text-align: justify;&quot;&gt;&lt;span style=&quot;background-color: initial;&quot;&gt;&amp;nbsp;O sistema deve ser implementado usando múltiplos serviços da nuvem AWS para garantir uma entrega rápida e responsiva, segurança na gestão e armazenamento de dados,&lt;/span&gt;&lt;/div&gt;&lt;div style=&quot;text-align: justify;&quot;&gt;&lt;span style=&quot;background-color: initial;&quot;&gt;&amp;nbsp;e a capacidade de enviar lembretes automáticos via e-mail para os usuários. O sistema deve ser robusto o suficiente para lidar com uma demanda estimada de 5 milhões de&lt;/span&gt;&lt;/div&gt;&lt;div style=&quot;text-align: justify;&quot;&gt;&lt;span style=&quot;background-color: initial;&quot;&gt;compromissos agendados por mês e enviar notificações para 3 milhões de compromissos próximos.&quot;&amp;nbsp;&lt;/span&gt;&lt;/div&gt;&lt;/font&gt;" style="text;html=1;align=left;verticalAlign=middle;resizable=0;points=[];autosize=1;strokeColor=none;fillColor=none;" vertex="1" parent="1">
          <mxGeometry x="860" y="817" width="1120" height="80" as="geometry" />
        </mxCell>
        <mxCell id="6_GjriQWZp8B4GLdr1Hl-55" value="" style="sketch=0;points=[[0,0,0],[0.25,0,0],[0.5,0,0],[0.75,0,0],[1,0,0],[0,1,0],[0.25,1,0],[0.5,1,0],[0.75,1,0],[1,1,0],[0,0.25,0],[0,0.5,0],[0,0.75,0],[1,0.25,0],[1,0.5,0],[1,0.75,0]];outlineConnect=0;fontColor=#232F3E;fillColor=#01A88D;strokeColor=#ffffff;dashed=0;verticalLabelPosition=bottom;verticalAlign=top;align=center;html=1;fontSize=12;fontStyle=0;aspect=fixed;shape=mxgraph.aws4.resourceIcon;resIcon=mxgraph.aws4.rekognition_2;" vertex="1" parent="1">
          <mxGeometry x="1370" y="237" width="50" height="50" as="geometry" />
        </mxCell>
        <mxCell id="6_GjriQWZp8B4GLdr1Hl-56" value="&quot;Desenvolvimento de uma plataforma de análise de imagens online (HTML, CSS) onde os usuários&lt;br&gt;&amp;nbsp;podem enviar imagens e receber uma avaliação imediata sobre os objetos, cenas e/ou rostos presentes no conteúdo.&lt;br&gt;&amp;nbsp;O sistema deve ser implementado usando múltiplos serviços da nuvem AWS para garantir análises visuais precisas e rápidas,&lt;br&gt;&amp;nbsp;além de segurança na gestão e armazenamento de dados e imagens. A plataforma deve ser capaz de processar e &lt;br&gt;armazenar resultados de análises de 150 mil de submissões de imagens por mês, oferecendo insights detalhados sobre o conteúdo visual submetido.&quot;&lt;br&gt;&lt;br&gt;&lt;br&gt;&lt;br&gt;Diagrama de arquitetura&lt;br&gt;Estimativa de preço&lt;br&gt;PPT sobre o porquê o uso serviço&lt;br&gt;&lt;br&gt;Vocês receberam acesso a nossa conta da Campinho&lt;br&gt;&lt;br&gt;&lt;br&gt;Semana 8 a Semana 10&lt;br&gt;&lt;br&gt;&lt;br&gt;Sugestão de ser na semana após a finalização do bootcamp, na semana 13 **&lt;br&gt;&lt;br&gt;" style="text;html=1;align=left;verticalAlign=middle;resizable=0;points=[];autosize=1;strokeColor=none;fillColor=none;" vertex="1" parent="1">
          <mxGeometry x="1710" y="162" width="830" height="300" as="geometry" />
        </mxCell>
        <mxCell id="6_GjriQWZp8B4GLdr1Hl-57" value="&quot;Desenvolvimento de um website (html, css, imagens) contendo os currículos do grupo e a implantação de&lt;br/&gt;um ou mais serviços na nuvem AWS, com rede de entrega de conteúdo, com baixa latência, com segurança, e armazenamento durável, para atender a&lt;br/&gt;demanda de 11 milhões de requisições¹ por mês.&quot;" style="text;html=1;align=center;verticalAlign=middle;resizable=0;points=[];autosize=1;strokeColor=none;fillColor=none;" vertex="1" parent="1">
          <mxGeometry x="70" y="40" width="830" height="60" as="geometry" />
        </mxCell>
      </root>
    </mxGraphModel>
  </diagram>
</mxfile>
